{
  "accessors": [
    {
      "bufferView": 2,
      "componentType": 5126,
      "count": 779,
      "max": [
        0.6380911469459534,
        1.0409142971038818,
        2.2619564533233643
      ],
      "min": [
        -0.6003056168556213,
        -0.0022203922271728516,
        -2.7823266983032227
      ],
      "type": "VEC3"
    },
    {
      "bufferView": 2,
      "byteOffset": 9348,
      "componentType": 5126,
      "count": 779,
      "max": [
        0.9998575448989868,
        0.9996575117111206,
        0.9968159794807434
      ],
      "min": [
        -0.9998642802238464,
        -0.9999738931655884,
        -0.9924210906028748
      ],
      "type": "VEC3"
    },
    {
      "bufferView": 3,
      "componentType": 5126,
      "count": 779,
      "max": [
        0.9999122023582458,
        0.9997791647911072,
        0.5280053019523621,
        1.0
      ],
      "min": [
        -0.9999908804893494,
        -0.9996415972709656,
        -0.6064749360084534,
        1.0
      ],
      "type": "VEC4"
    },
    {
      "bufferView": 1,
      "componentType": 5126,
      "count": 779,
      "max": [
        0.6532295346260071,
        0.982422947883606
      ],
      "min": [
        0.027900487184524536,
        0.0129023976624012
      ],
      "type": "VEC2"
    },
    {
      "bufferView": 0,
      "componentType": 5125,
      "count": 4128,
      "type": "SCALAR"
    }
  ],
  "asset": {
    "extras": {
      "author": "Arjun S R (https://sketchfab.com/SRstudiosKerala)",
      "license": "CC-BY-NC-4.0 (http://creativecommons.org/licenses/by-nc/4.0/)",
      "source": "https://sketchfab.com/3d-models/worm-game-ready-free-abb645445dd24c47a40052afb235336e",
      "title": "Worm game-ready (FREE)"
    },
    "generator": "Sketchfab-15.22.0",
    "version": "2.0"
  },
  "bufferViews": [
    {
      "buffer": 0,
      "byteLength": 16512,
      "name": "floatBufferViews",
      "target": 34963
    },
    {
      "buffer": 0,
      "byteLength": 6232,
      "byteOffset": 16512,
      "byteStride": 8,
      "name": "floatBufferViews",
      "target": 34962
    },
    {
      "buffer": 0,
      "byteLength": 18696,
      "byteOffset": 22744,
      "byteStride": 12,
      "name": "floatBufferViews",
      "target": 34962
    },
    {
      "buffer": 0,
      "byteLength": 12464,
      "byteOffset": 41440,
      "byteStride": 16,
      "name": "floatBufferViews",
      "target": 34962
    }
  ],
  "buffers": [
    {
      "byteLength": 53904,
      "uri": "scene.bin"
    }
  ],
  "images": [
    {
      "uri": "textures/Worm_baseColor.png"
    },
    {
      "uri": "textures/Worm_metallicRoughness.png"
    },
    {
      "uri": "textures/Worm_normal.png"
    }
  ],
  "materials": [
    {
      "doubleSided": true,
      "name": "Worm",
      "normalTexture": {
        "index": 2
      },
      "pbrMetallicRoughness": {
        "baseColorTexture": {
          "index": 0
        },
        "metallicRoughnessTexture": {
          "index": 1
        }
      }
    }
  ],
  "meshes": [
    {
      "name": "small_worm_Worm_0",
      "primitives": [
        {
          "attributes": {
            "NORMAL": 1,
            "POSITION": 0,
            "TANGENT": 2,
            "TEXCOORD_0": 3
          },
          "indices": 4,
          "material": 0,
          "mode": 4
        }
      ]
    }
  ],
  "nodes": [
    {
      "children": [
        1
      ],
      "matrix": [
        1.0,
        0.0,
        0.0,
        0.0,
        0.0,
        2.220446049250313e-16,
        -1.0,
        0.0,
        0.0,
        1.0,
        2.220446049250313e-16,
        0.0,
        0.0,
        0.0,
        0.0,
        1.0
      ],
      "name": "Sketchfab_model"
    },
    {
      "children": [
        2
      ],
      "matrix": [
        0.009999999776482582,
        0.0,
        0.0,
        0.0,
        0.0,
        0.0,
        0.009999999776482582,
        0.0,
        0.0,
        -0.009999999776482582,
        0.0,
        0.0,
        0.0,
        0.0,
        0.0,
        1.0
      ],
      "name": "673a0f6b53734825a853efb8311e58b5.fbx"
    },
    {
      "children": [
        3
      ],
      "name": "RootNode"
    },
    {
      "children": [
        4
      ],
      "name": "Worm1"
    },
    {
      "children": [
        5
      ],
      "name": "Meshes"
    },
    {
      "children": [
        6
      ],
      "name": "small_worm"
    },
    {
      "mesh": 0,
      "name": "small_worm_Worm_0"
    }
  ],
  "samplers": [
    {
      "magFilter": 9729,
      "minFilter": 9987,
      "wrapS": 10497,
      "wrapT": 10497
    }
  ],
  "scene": 0,
  "scenes": [
    {
      "name": "Sketchfab_Scene",
      "nodes": [
        0
      ]
    }
  ],
  "textures": [
    {
      "sampler": 0,
      "source": 0
    },
    {
      "sampler": 0,
      "source": 1
    },
    {
      "sampler": 0,
      "source": 2
    }
  ]
}
